# xmcd
#
# Track frame offsets:
#	150
#	15536
#	28346
#	42062
#	56202
#	69653
#	83241
#	98344
#	112694
#	126344
#	140076
#	153409
#	169335
#	182322
#	194654
#	208997
#	221228
#	236179
#	262267
#	281343
#
# Disc length: 3979 seconds
#
# Revision: 1
# Processed by: cddbd v1.5.2PL0 Copyright (c) Steve Scherf et al.
# Submitted via: audiograbber 1.83.01
#
DISCID=300f8914
DTITLE=Freddy Breck - Sinfonie D'Amour - CD1
DYEAR=2006
DGENRE=
TTITLE0=Sinfonie D'Amour
TTITLE1=Love And Roses
TTITLE2=Schau in die Sonne
TTITLE3=Lieb mich so wie ich bin
TTITLE4=Engel auf Erden
TTITLE5=Liebe ist das Feuer einer Nacht
TTITLE6=Sans Frontiere
TTITLE7=Drei weiße Rosen
TTITLE8=Pray with me
TTITLE9=Maar En Droom Vol Herinnering
TTITLE10=Paradiso Romantico
TTITLE11=Maori Maya
TTITLE12=Still So In Love With You
TTITLE13=Living To Love
TTITLE14=Ein Leben lang
TTITLE15=I Wonder
TTITLE16=Steig in das Traumboot der Liebe
TTITLE17=Lisa
TTITLE18=Der große Clown
TTITLE19=Sandkörner
EXTD=
EXTT0=
EXTT1=
EXTT2=
EXTT3=
EXTT4=
EXTT5=
EXTT6=
EXTT7=
EXTT8=
EXTT9=
EXTT10=
EXTT11=
EXTT12=
EXTT13=
EXTT14=
EXTT15=
EXTT16=
EXTT17=
EXTT18=
EXTT19=
PLAYORDER=
